<svg xmlns="http://www.w3.org/2000/svg" width="909" height="1021" viewBox="0 0 909 1021">
<g>
<path d="M 701.86 856.75 C702.39,858.54 702.52,859.98 702.16,859.95 C701.80,859.92 697.45,857.30 692.50,854.11 C671.26,840.45 640.60,820.46 615.00,803.57 C599.88,793.60 581.96,781.85 575.19,777.47 C568.41,773.09 547.94,759.65 529.69,747.61 C496.57,725.76 483.17,716.98 464.75,705.09 L 455.00 698.80 L 442.25 707.08 C429.10,715.62 398.71,735.62 360.81,760.67 C348.88,768.55 338.64,775.00 338.06,775.00 C337.36,775.00 337.00,769.57 337.00,758.97 L 337.00 742.95 L 321.75 743.22 L 306.50 743.50 L 305.96 790.00 L 298.23 790.00 C293.98,790.01 284.09,790.30 276.25,790.66 L 262.00 791.31 L 262.00 744.30 L 271.15 743.65 C276.19,743.29 286.09,743.00 293.15,743.00 L 306.00 743.00 L 306.00 701.00 L 261.00 701.00 L 261.00 743.00 L 248.50 743.00 C241.62,743.00 236.00,742.71 236.00,742.35 C236.00,741.98 239.36,729.72 243.46,715.10 C247.57,700.47 257.22,665.78 264.91,638.00 C272.59,610.22 279.75,584.72 280.81,581.33 L 282.74 575.15 L 279.12 571.72 C275.62,568.41 258.03,553.76 231.41,532.00 C224.35,526.22 213.27,517.09 206.79,511.71 L 195.00 501.92 L 195.00 461.00 L 240.96 461.00 L 241.50 505.50 L 286.50 505.50 L 287.04 461.00 L 294.59 461.00 C301.46,461.00 302.00,461.14 300.57,462.57 C299.71,463.44 299.00,464.50 299.00,464.94 C299.00,465.93 304.99,468.17 316.15,471.35 C320.91,472.71 325.74,474.33 326.90,474.95 C328.06,475.57 331.08,476.11 333.61,476.17 L 338.21 476.26 L 327.21 487.38 C313.04,501.69 310.87,506.02 314.41,512.80 C316.05,515.94 326.81,526.47 354.00,551.52 C364.73,561.41 375.98,572.05 379.00,575.18 C385.25,581.64 390.36,584.99 393.99,585.00 C399.05,585.00 412.02,568.58 410.82,563.69 C410.65,562.96 399.48,552.04 386.02,539.43 C372.56,526.82 359.28,514.37 356.52,511.76 L 351.50 507.03 L 356.00 502.89 C358.48,500.62 361.99,497.35 363.81,495.63 C365.83,493.72 366.86,493.18 366.45,494.25 C366.09,495.21 365.40,496.00 364.93,496.00 C364.46,496.00 363.60,497.78 363.01,499.96 C362.43,502.13 361.51,504.19 360.97,504.52 C359.78,505.25 359.67,509.00 360.84,509.00 C361.30,509.00 362.19,510.12 362.82,511.50 C363.44,512.88 364.67,514.00 365.54,514.00 C366.41,514.00 366.84,514.44 366.51,514.99 C366.16,515.56 366.56,515.72 367.46,515.38 C368.32,515.05 369.29,513.68 369.63,512.34 C370.12,510.40 370.79,509.95 372.87,510.20 C374.90,510.43 375.57,511.13 375.82,513.25 C376.04,515.19 375.68,516.00 374.60,516.00 C372.89,516.00 373.44,518.17 376.00,521.53 C377.95,524.09 384.06,526.34 385.41,524.99 C385.95,524.45 388.33,524.00 390.70,524.00 C393.09,524.00 395.00,523.52 395.00,522.93 C395.00,522.21 393.17,522.08 389.49,522.54 C384.01,523.23 383.98,523.22 384.86,520.87 C385.63,518.79 386.40,518.49 391.12,518.43 C394.11,518.40 397.92,517.62 399.70,516.68 C403.52,514.67 413.55,514.37 414.26,516.25 C414.63,517.20 416.98,517.32 424.12,516.75 C429.28,516.34 435.19,515.96 437.25,515.91 C440.13,515.83 441.85,514.97 444.73,512.15 C448.09,508.86 448.50,508.70 448.77,510.53 C449.07,512.51 440.34,546.34 435.54,561.81 C432.30,572.26 421.00,613.53 421.00,614.93 C421.00,615.72 424.90,615.98 434.16,615.78 L 447.31 615.50 L 449.20 610.00 C450.24,606.97 454.26,593.03 458.13,579.00 C461.99,564.97 466.97,547.42 469.18,540.00 C471.40,532.58 474.54,521.57 476.17,515.55 C477.81,509.53 479.64,503.68 480.24,502.55 C480.85,501.42 481.67,499.15 482.07,497.50 L 482.80 494.50 L 482.90 497.75 C482.95,499.54 483.40,501.00 483.89,501.00 C485.26,501.00 496.15,497.64 521.68,489.33 C543.11,482.36 547.72,480.18 544.80,478.38 C544.08,477.93 543.98,478.15 544.50,479.00 C545.05,479.89 544.92,480.07 544.09,479.55 C543.42,479.14 543.11,478.55 543.42,478.25 C543.72,477.95 543.18,476.96 542.23,476.06 C541.28,475.16 538.49,472.30 536.04,469.71 C528.06,461.28 532.96,464.74 544.59,475.75 C550.84,481.66 560.69,490.96 566.48,496.41 C572.26,501.86 577.00,506.87 577.00,507.54 C577.00,508.21 574.86,510.49 572.25,512.59 C569.64,514.70 560.23,523.42 551.35,531.97 C542.47,540.51 531.48,550.90 526.93,555.05 C519.89,561.49 518.67,563.08 518.67,565.79 C518.67,570.02 526.14,579.69 531.85,582.85 C533.19,583.59 534.17,584.26 535.25,584.51 C539.44,585.49 545.12,580.15 579.14,548.10 C581.07,546.28 583.09,544.38 585.20,542.39 C613.40,515.84 616.00,512.98 616.00,508.51 C616.00,506.52 615.35,503.65 614.56,502.11 C613.76,500.58 601.29,487.77 586.83,473.66 C563.26,450.64 556.14,443.23 564.59,450.50 C566.19,451.87 567.86,453.00 568.29,453.00 C569.89,453.00 575.24,457.57 576.03,459.60 C577.21,462.66 586.03,468.25 588.50,467.49 C589.60,467.16 593.42,466.24 597.00,465.45 C600.58,464.67 606.88,462.89 611.00,461.52 C615.12,460.14 629.53,455.58 643.00,451.39 C656.47,447.20 668.26,443.37 669.20,442.88 C671.78,441.52 711.01,429.62 741.50,420.93 C745.35,419.84 754.58,416.86 762.00,414.31 C769.42,411.77 779.55,408.36 784.50,406.74 C789.45,405.12 795.53,402.94 798.00,401.91 C800.47,400.87 805.97,399.12 810.20,398.02 C816.42,396.40 818.45,396.24 820.70,397.15 C824.55,398.72 829.10,398.20 831.57,395.90 C832.71,394.85 833.95,394.29 834.32,394.66 C834.70,395.03 835.00,394.82 835.00,394.20 C835.00,393.55 835.71,393.34 836.66,393.70 C837.62,394.07 838.07,393.93 837.73,393.37 C837.40,392.84 838.11,391.79 839.31,391.04 C841.39,389.75 841.42,389.78 840.00,391.59 C838.62,393.34 838.64,393.39 840.19,392.18 C841.12,391.45 841.68,390.32 841.44,389.68 C841.19,389.03 842.31,387.62 843.92,386.54 C845.54,385.46 846.64,384.22 846.37,383.79 C846.10,383.36 847.80,383.00 850.16,383.00 C853.82,383.00 854.22,383.19 852.96,384.37 C850.39,386.79 817.33,414.86 791.50,436.57 C777.75,448.12 753.67,468.37 738.00,481.57 C722.33,494.77 695.78,517.01 679.00,530.98 C662.22,544.95 643.84,560.45 638.14,565.41 L 627.79 574.43 L 628.33 578.47 C628.63,580.68 630.64,589.03 632.80,597.00 C634.96,604.97 640.37,625.22 644.82,642.00 C649.26,658.78 657.59,690.05 663.33,711.50 C669.06,732.95 676.72,761.75 680.34,775.50 C696.38,836.35 700.98,853.71 701.86,856.75 ZM 260.77 813.25 L 260.50 834.50 L 239.75 834.77 L 219.00 835.04 L 219.00 792.00 L 261.04 792.00 ZM 341.67 736.33 C342.03,736.70 349.91,737.00 359.17,737.00 L 376.00 737.00 L 376.00 702.00 L 341.00 702.00 L 341.00 718.83 C341.00,728.09 341.30,735.97 341.67,736.33 ZM 383.45 690.92 C383.89,691.63 389.98,692.00 401.06,692.00 L 418.00 692.00 L 418.00 658.00 L 384.23 658.00 L 383.50 673.92 C383.11,682.67 383.08,690.32 383.45,690.92 ZM 306.64 648.23 C307.20,649.13 335.10,649.28 337.42,648.39 C338.77,647.87 339.00,645.42 339.00,631.37 L 339.00 614.95 L 305.50 615.50 L 305.83 631.48 C306.02,640.27 306.38,647.81 306.64,648.23 ZM 72.78 389.22 L 72.50 403.50 L 59.98 403.78 C50.97,403.98 47.00,403.70 45.83,402.78 C44.50,401.74 44.13,399.06 43.85,388.50 L 43.50 375.50 L 73.06 374.95 ZM 195.00 459.58 C195.00,459.81 184.65,460.00 172.00,460.00 L 149.00 460.00 L 149.00 417.00 L 193.82 417.00 L 194.53 421.15 C194.91,423.43 194.84,431.87 194.36,439.90 C193.68,451.41 193.44,452.98 193.21,447.31 C192.95,440.90 192.59,439.77 189.91,436.90 C188.25,435.13 187.29,433.41 187.77,433.09 C189.74,431.76 192.25,422.27 190.87,421.42 C190.36,421.11 181.80,420.84 171.85,420.82 C157.69,420.80 153.56,421.09 152.89,422.15 C151.55,424.26 151.85,430.13 153.60,436.01 C154.54,439.19 154.95,442.89 154.60,445.07 C153.66,450.95 155.53,454.81 159.84,455.90 C169.46,458.33 191.76,459.00 193.06,456.90 C193.62,456.00 195.00,457.91 195.00,459.58 ZM 46.75 394.92 C48.42,396.74 53.05,397.00 67.25,396.05 C67.66,396.02 68.00,392.47 68.00,388.16 C68.00,380.73 67.87,380.26 65.45,379.16 C62.65,377.89 50.15,377.60 48.40,378.77 C44.76,381.20 43.70,391.58 46.75,394.92 ZM 286.00 452.65 L 286.00 460.00 L 242.00 460.00 L 242.15 442.75 L 242.30 425.50 L 243.06 437.50 C243.47,444.10 243.97,451.64 244.15,454.25 L 244.50 459.00 L 257.67 459.00 C272.34,459.00 280.38,457.66 283.75,454.66 ZM 487.17 486.39 C486.12,487.55 484.75,489.85 484.13,491.50 C481.52,498.41 484.29,486.11 489.19,469.00 C493.89,452.59 496.01,446.60 494.68,453.50 C494.36,455.15 492.97,462.75 491.59,470.39 C489.85,480.04 488.50,484.93 487.17,486.39 ZM 466.44 452.37 C464.34,459.59 462.11,466.28 461.48,467.23 C459.32,470.50 461.13,457.95 463.64,452.28 C464.94,449.34 466.00,446.03 466.00,444.92 C466.00,443.81 466.75,441.46 467.66,439.70 C470.82,433.62 470.29,439.11 466.44,452.37 ZM 367.58 506.44 C369.00,507.85 368.96,508.00 367.13,508.00 C364.82,508.00 363.48,506.44 364.99,505.51 C365.55,505.16 366.72,505.58 367.58,506.44 ZM 198.13 370.90 C197.38,371.37 196.37,372.38 195.90,373.13 C195.26,374.14 195.03,373.91 195.02,372.25 C195.00,370.57 195.57,370.00 197.25,370.02 C198.91,370.03 199.14,370.26 198.13,370.90 ZM 373.40 488.40 C372.75,490.08 370.00,491.38 370.00,490.00 C370.00,489.49 370.89,488.59 371.98,488.01 C373.56,487.16 373.85,487.24 373.40,488.40 ZM 109.50 378.00 C106.77,379.17 106.00,379.17 106.00,378.00 C106.00,377.45 107.24,377.03 108.75,377.07 C111.19,377.13 111.27,377.24 109.50,378.00 ZM 281.46 566.06 C281.14,566.58 281.78,567.00 282.88,567.00 C285.49,567.00 286.44,565.46 283.95,565.27 C282.90,565.19 281.78,565.55 281.46,566.06 Z" fill="rgb(24,78,136)"/>
<path d="M 195.00 459.58 C195.00,457.91 193.62,456.00 193.06,456.90 C191.76,459.00 169.46,458.33 159.84,455.90 C155.53,454.81 153.66,450.95 154.60,445.07 C154.95,442.89 154.54,439.19 153.60,436.01 C151.85,430.13 151.55,424.26 152.89,422.15 C153.56,421.09 157.69,420.80 171.85,420.82 C181.80,420.84 190.36,421.11 190.87,421.42 C192.25,422.27 189.74,431.76 187.77,433.09 C187.29,433.41 188.25,435.13 189.91,436.90 C192.59,439.77 192.95,440.90 193.21,447.31 C193.44,452.98 193.68,451.41 194.36,439.90 C194.84,431.87 194.91,423.43 194.53,421.15 L 193.82 417.00 L 149.00 417.00 L 149.00 417.04 L 105.50 416.50 L 105.50 376.50 L 149.00 375.96 L 149.00 416.00 L 193.96 416.00 L 194.50 369.50 L 241.00 368.96 L 241.00 416.00 L 286.00 416.00 L 286.00 369.04 L 241.50 368.50 L 241.50 323.50 L 287.00 322.96 L 287.00 369.00 L 332.00 369.00 L 332.00 321.05 L 347.58 320.78 L 363.15 320.50 L 371.33 299.50 L 379.50 278.50 L 380.11 238.00 L 397.72 238.00 L 401.44 228.75 C405.17,219.47 407.10,214.52 409.53,208.00 C410.91,204.31 419.61,181.97 437.79,135.50 C443.81,120.10 449.81,104.69 451.11,101.25 C452.42,97.81 453.79,95.00 454.15,95.00 C454.78,95.00 459.06,105.56 476.68,150.50 C480.78,160.95 489.90,184.12 496.94,202.00 C503.98,219.88 512.47,241.48 515.80,250.00 C530.20,286.82 549.47,335.55 554.65,348.25 C560.17,361.77 560.32,362.00 563.38,362.01 C567.44,362.02 606.08,364.67 621.50,366.00 C628.10,366.57 646.55,367.91 662.50,368.98 C748.79,374.79 852.87,382.53 853.52,383.19 C853.54,383.21 853.53,383.24 853.50,383.30 C853.18,383.06 852.15,383.00 850.16,383.00 C847.80,383.00 846.10,383.36 846.37,383.79 C846.64,384.22 845.54,385.46 843.92,386.54 C842.31,387.62 841.19,389.03 841.44,389.68 C841.68,390.32 841.12,391.45 840.19,392.18 C838.64,393.39 838.62,393.34 840.00,391.59 C841.42,389.78 841.39,389.75 839.31,391.04 C838.11,391.79 837.40,392.84 837.73,393.37 C838.07,393.93 837.62,394.07 836.66,393.70 C835.71,393.34 835.00,393.55 835.00,394.20 C835.00,394.82 834.70,395.03 834.32,394.66 C833.95,394.29 832.71,394.85 831.57,395.90 C829.10,398.20 824.55,398.72 820.70,397.15 C818.45,396.24 816.42,396.40 810.20,398.02 C805.97,399.12 800.47,400.87 798.00,401.91 C795.53,402.94 789.45,405.12 784.50,406.74 C779.55,408.36 769.42,411.77 762.00,414.31 C754.58,416.86 745.35,419.84 741.50,420.93 C711.01,429.62 671.78,441.52 669.20,442.88 C668.26,443.37 656.47,447.20 643.00,451.39 C629.53,455.58 615.12,460.14 611.00,461.52 C606.88,462.89 600.58,464.67 597.00,465.45 C593.42,466.24 589.60,467.16 588.50,467.49 C586.03,468.25 577.21,462.66 576.03,459.60 C575.24,457.57 569.89,453.00 568.29,453.00 C567.86,453.00 566.19,451.87 564.59,450.50 C556.14,443.23 563.26,450.64 586.83,473.66 C593.40,480.08 599.57,486.22 604.41,491.16 C593.31,480.03 574.33,461.75 555.34,444.02 C536.96,426.85 536.11,426.38 529.70,429.62 C520.82,434.10 515.83,443.67 519.29,449.58 C519.95,450.72 533.21,463.97 548.75,479.02 C555.11,485.18 561.00,490.97 565.73,495.71 C559.88,490.19 550.58,481.42 544.59,475.75 C532.96,464.74 528.06,461.28 536.04,469.71 C538.49,472.30 541.28,475.16 542.23,476.06 C543.18,476.96 543.72,477.95 543.42,478.25 C543.11,478.55 543.42,479.14 544.09,479.55 C544.92,480.07 545.05,479.89 544.50,479.00 C543.98,478.15 544.08,477.93 544.80,478.38 C547.72,480.18 543.11,482.36 521.68,489.33 C496.15,497.64 485.26,501.00 483.89,501.00 C483.40,501.00 482.95,499.54 482.90,497.75 L 482.80 494.50 L 482.07 497.50 C481.67,499.15 480.85,501.42 480.24,502.55 C479.64,503.68 477.81,509.53 476.17,515.55 C474.91,520.21 472.74,527.85 470.80,534.51 C472.97,526.93 475.74,516.86 477.65,509.50 C480.07,500.15 482.46,491.60 482.96,490.50 C483.37,489.58 484.98,484.14 486.80,477.58 C483.48,489.88 481.99,497.19 484.13,491.50 C484.75,489.85 486.12,487.55 487.17,486.39 C488.50,484.93 489.85,480.04 491.59,470.39 C492.97,462.75 494.36,455.15 494.68,453.50 C496.01,446.60 493.89,452.59 489.19,469.00 C488.75,470.54 488.33,472.05 487.92,473.50 C498.66,433.86 502.48,420.51 503.14,420.20 C503.50,420.04 503.56,419.03 503.28,417.95 C502.98,416.83 503.27,416.00 503.94,416.00 C504.59,416.00 504.85,415.57 504.53,415.05 C503.79,413.85 505.97,405.00 507.01,405.00 C507.44,405.00 507.75,403.99 507.70,402.75 C507.66,401.51 507.96,399.08 508.37,397.34 L 509.12 394.18 L 501.81 393.52 C497.79,393.15 491.81,393.00 488.53,393.17 L 482.56 393.50 L 480.24 402.00 C478.97,406.67 476.34,416.35 474.40,423.50 C473.15,428.14 470.99,435.82 468.80,443.50 C470.31,437.01 469.97,435.24 467.66,439.70 C466.75,441.46 466.00,443.81 466.00,444.92 C466.00,446.03 464.94,449.34 463.64,452.28 C461.13,457.95 459.32,470.50 461.48,467.23 C461.79,466.77 462.48,464.94 463.34,462.36 C456.41,486.16 452.94,498.35 451.03,505.49 C447.87,517.36 444.90,528.35 442.40,537.51 C445.90,524.29 448.95,511.72 448.77,510.53 C448.50,508.70 448.09,508.86 444.73,512.15 C441.85,514.97 440.13,515.83 437.25,515.91 C435.19,515.96 429.28,516.34 424.12,516.75 C416.98,517.32 414.63,517.20 414.26,516.25 C413.55,514.37 403.52,514.67 399.70,516.68 C397.92,517.62 394.11,518.40 391.12,518.43 C386.40,518.49 385.63,518.79 384.86,520.87 C383.98,523.22 384.01,523.23 389.49,522.54 C393.17,522.08 395.00,522.21 395.00,522.93 C395.00,523.52 393.09,524.00 390.70,524.00 C388.33,524.00 385.95,524.45 385.41,524.99 C384.06,526.34 377.95,524.09 376.00,521.53 C373.44,518.17 372.89,516.00 374.60,516.00 C375.68,516.00 376.04,515.19 375.82,513.25 C375.57,511.13 374.90,510.43 372.87,510.20 C370.79,509.95 370.12,510.40 369.63,512.34 C369.29,513.68 368.32,515.05 367.46,515.38 C366.56,515.72 366.16,515.56 366.51,514.99 C366.84,514.44 366.41,514.00 365.54,514.00 C364.67,514.00 363.44,512.88 362.82,511.50 C362.19,510.12 361.30,509.00 360.84,509.00 C359.67,509.00 359.78,505.25 360.97,504.52 C361.51,504.19 362.43,502.13 363.01,499.96 C363.60,497.78 364.46,496.00 364.93,496.00 C365.40,496.00 366.09,495.21 366.45,494.25 C366.86,493.18 365.83,493.72 363.81,495.63 C361.99,497.35 358.48,500.62 356.00,502.89 L 352.71 505.92 L 356.25 502.50 C358.86,499.99 361.00,497.57 361.00,497.12 C361.00,496.68 370.56,487.58 382.25,476.91 C409.83,451.72 409.76,451.79 410.57,448.57 C411.73,443.97 409.41,438.66 404.09,433.68 C395.30,425.46 392.06,425.96 380.71,437.27 C372.52,445.44 331.53,484.18 321.97,492.81 C323.49,491.17 325.23,489.37 327.21,487.38 L 338.21 476.26 L 333.61 476.17 C331.08,476.11 328.06,475.57 326.90,474.95 C325.74,474.33 320.91,472.71 316.15,471.35 C304.99,468.17 299.00,465.93 299.00,464.94 C299.00,464.50 299.71,463.44 300.57,462.57 C302.00,461.14 301.46,461.00 294.59,461.00 L 287.04 461.00 L 286.50 505.50 L 280.89 505.50 C281.48,505.46 281.94,505.41 282.25,505.36 L 286.00 504.74 L 286.00 461.00 L 242.00 461.00 L 242.00 504.87 L 244.75 505.28 C245.28,505.36 246.16,505.44 247.29,505.50 L 241.50 505.50 L 240.96 461.00 L 195.00 461.00 L 195.00 501.92 L 206.79 511.71 C210.73,514.98 216.37,519.64 221.77,524.09 C210.63,515.00 201.14,507.34 197.02,504.17 L 194.00 501.85 L 194.00 461.00 L 149.00 461.00 L 149.00 460.00 L 172.00 460.00 C184.65,460.00 195.00,459.81 195.00,459.58 ZM 323.77 268.75 L 323.50 293.50 L 299.43 293.77 C286.20,293.91 275.06,293.73 274.68,293.35 C274.31,292.97 274.00,281.72 274.00,268.33 L 274.00 244.00 L 324.03 244.00 ZM 332.00 369.00 L 332.00 392.33 C332.00,405.17 332.34,416.02 332.75,416.46 C333.16,416.90 340.88,416.97 349.91,416.63 C358.94,416.28 368.95,416.00 372.16,416.00 L 378.00 416.00 L 378.00 369.00 L 332.00 369.00 ZM 242.00 271.96 L 242.00 316.00 L 195.96 316.00 L 196.50 272.50 ZM 195.00 460.00 L 241.00 460.00 L 241.00 417.00 L 195.00 417.00 L 195.00 460.00 ZM 287.00 417.00 L 287.00 460.00 L 332.00 460.00 L 332.00 417.00 ZM 379.00 327.00 L 379.00 369.78 L 387.75 369.55 C392.56,369.42 401.79,369.25 408.25,369.16 L 420.00 369.00 L 420.00 327.00 ZM 419.67 275.34 C420.04,275.70 427.68,276.00 436.67,276.00 L 453.00 276.00 L 453.00 240.00 L 437.93 240.00 C429.65,240.00 422.02,240.45 420.99,241.01 C419.26,241.93 419.10,243.40 419.06,258.35 C419.03,267.33 419.31,274.97 419.67,275.34 ZM 248.00 190.00 L 248.00 223.00 L 216.00 223.00 L 216.00 190.00 ZM 312.00 160.95 L 312.00 192.00 L 280.95 192.00 L 281.22 176.75 L 281.50 161.50 ZM 183.00 226.00 L 183.00 256.00 L 153.00 256.00 L 153.00 226.00 ZM 46.75 394.92 C43.70,391.58 44.76,381.20 48.40,378.77 C50.15,377.60 62.65,377.89 65.45,379.16 C67.87,380.26 68.00,380.73 68.00,388.16 C68.00,392.47 67.66,396.02 67.25,396.05 C53.05,397.00 48.42,396.74 46.75,394.92 ZM 286.00 452.65 L 283.75 454.66 C280.38,457.66 272.34,459.00 257.67,459.00 L 244.50 459.00 L 244.15 454.25 C243.97,451.64 243.47,444.10 243.06,437.50 L 242.30 425.50 L 242.15 442.75 L 242.00 460.00 L 286.00 460.00 ZM 367.58 506.44 C366.72,505.58 365.55,505.16 364.99,505.51 C363.48,506.44 364.82,508.00 367.13,508.00 C368.96,508.00 369.00,507.85 367.58,506.44 ZM 198.13 370.90 C199.14,370.26 198.91,370.03 197.25,370.02 C195.57,370.00 195.00,370.57 195.02,372.25 C195.03,373.91 195.26,374.14 195.90,373.13 C196.37,372.38 197.38,371.37 198.13,370.90 ZM 373.40 488.40 C373.85,487.24 373.56,487.16 371.98,488.01 C370.89,488.59 370.00,489.49 370.00,490.00 C370.00,491.38 372.75,490.08 373.40,488.40 ZM 109.50 378.00 C111.27,377.24 111.19,377.13 108.75,377.07 C107.24,377.03 106.00,377.45 106.00,378.00 C106.00,379.17 106.77,379.17 109.50,378.00 ZM 281.46 566.06 C281.78,565.55 282.90,565.19 283.95,565.27 C286.44,565.46 285.49,567.00 282.88,567.00 C281.78,567.00 281.14,566.58 281.46,566.06 ZM 613.08 514.97 C609.64,519.20 602.29,526.29 586.78,540.91 C592.89,535.07 598.76,529.39 603.75,524.48 C608.39,519.90 611.28,517.02 613.08,514.97 ZM 393.99 585.00 C393.68,585.00 393.36,584.97 393.03,584.92 C395.77,585.12 398.18,583.20 402.69,578.41 C403.68,577.37 404.58,576.34 405.40,575.35 C401.56,580.40 396.67,585.00 393.99,585.00 ZM 313.90 503.47 C312.76,506.74 312.91,509.92 314.41,512.80 C312.73,509.58 312.34,506.91 313.90,503.47 ZM 242.31 540.92 C262.79,557.73 276.12,568.88 279.12,571.72 C276.46,569.20 259.99,555.48 242.31,540.92 ZM 351.53 507.05 L 356.52 511.76 C359.28,514.37 372.56,526.82 386.02,539.43 C372.56,526.82 359.28,514.38 356.52,511.79 L 351.50 507.08 ZM 614.16 501.54 C614.36,501.80 614.49,501.99 614.56,502.11 C615.35,503.65 616.00,506.52 616.00,508.51 C616.00,508.64 616.00,508.77 615.99,508.90 C616.00,508.76 616.00,508.61 616.00,508.46 C615.99,506.30 615.17,503.20 614.16,501.54 ZM 559.83 566.23 C555.19,570.54 551.50,573.92 548.53,576.52 C551.59,573.79 555.48,570.25 559.83,566.23 ZM 384.67 580.45 C382.91,579.02 381.01,577.26 379.00,575.18 C380.75,576.99 382.85,578.92 384.67,580.45 ZM 749.68 471.74 C745.45,475.30 741.48,478.64 738.00,481.57 C722.33,494.77 695.78,517.00 679.01,530.97 C695.78,517.00 722.33,494.77 738.00,481.57 C741.54,478.59 745.50,475.26 749.68,471.74 ZM 577.00 507.56 C577.00,507.56 577.00,507.57 577.00,507.57 C577.00,508.22 574.86,510.48 572.25,512.59 C574.83,510.51 576.95,508.26 577.00,507.56 Z" fill="rgb(69,140,193)"/>
<path d="M 0.00 510.50 L 0.00 0.00 L 454.50 0.00 L 909.00 0.00 L 909.00 510.50 L 909.00 1021.00 L 454.50 1021.00 L 0.00 1021.00 L 0.00 510.50 ZM 701.86 856.75 C700.98,853.71 696.38,836.35 680.34,775.50 C676.72,761.75 669.06,732.95 663.33,711.50 C657.59,690.05 649.26,658.78 644.82,642.00 C640.37,625.22 634.96,604.97 632.80,597.00 C630.64,589.03 628.63,580.68 628.33,578.47 L 627.79 574.43 L 638.14 565.41 C643.84,560.45 662.22,544.95 679.00,530.98 C695.78,517.01 722.33,494.78 738.00,481.57 C753.67,468.37 779.10,446.97 794.50,434.01 C837.97,397.42 853.98,383.64 853.52,383.19 C852.87,382.53 748.79,374.79 662.50,368.98 C646.55,367.91 628.10,366.57 621.50,366.00 C606.08,364.67 567.44,362.02 563.38,362.01 C560.32,362.00 560.17,361.77 554.65,348.25 C549.47,335.55 530.20,286.82 515.80,250.00 C512.47,241.48 503.98,219.88 496.94,202.00 C489.90,184.12 480.78,160.95 476.68,150.50 C459.06,105.56 454.78,95.00 454.15,95.00 C453.79,95.00 452.42,97.81 451.11,101.25 C449.81,104.69 443.81,120.10 437.79,135.50 C419.61,181.97 410.91,204.31 409.53,208.00 C407.10,214.52 405.17,219.47 401.44,228.75 L 397.72 238.00 L 388.91 238.00 L 380.11 238.00 L 379.81 258.25 L 379.50 278.50 L 371.33 299.50 L 363.15 320.50 L 347.58 320.78 L 332.00 321.05 L 332.00 345.03 L 332.00 369.00 L 309.50 369.00 L 287.00 369.00 L 287.00 345.98 L 287.00 322.96 L 264.25 323.23 L 241.50 323.50 L 241.50 346.00 L 241.50 368.50 L 263.75 368.77 L 286.00 369.04 L 286.00 392.52 L 286.00 416.00 L 263.50 416.00 L 241.00 416.00 L 241.00 392.48 L 241.00 368.96 L 217.75 369.23 L 194.50 369.50 L 194.23 392.75 L 193.96 416.00 L 171.48 416.00 L 149.00 416.00 L 149.00 395.98 L 149.00 375.96 L 127.25 376.23 L 105.50 376.50 L 105.50 396.50 L 105.50 416.50 L 127.25 416.77 L 149.00 417.04 L 149.00 439.02 L 149.00 461.00 L 171.50 461.00 L 194.00 461.00 L 194.00 481.42 L 194.00 501.85 L 197.02 504.17 C209.74,513.95 273.65,566.54 279.12,571.72 L 282.74 575.15 L 280.81 581.33 C279.75,584.72 272.59,610.22 264.91,638.00 C257.22,665.78 247.57,700.47 243.46,715.10 C239.36,729.72 236.00,741.98 236.00,742.35 C236.00,742.71 241.62,743.00 248.50,743.00 L 261.00 743.00 L 261.00 722.00 L 261.00 701.00 L 283.50 701.00 L 306.00 701.00 L 306.00 722.00 L 306.00 743.00 L 293.15 743.00 C286.09,743.00 276.19,743.29 271.15,743.65 L 262.00 744.30 L 262.00 767.81 L 262.00 791.31 L 276.25 790.66 C284.09,790.30 293.98,790.01 298.23,790.00 L 305.96 790.00 L 306.23 766.75 L 306.50 743.50 L 321.75 743.22 L 337.00 742.95 L 337.00 758.97 C337.00,769.57 337.36,775.00 338.06,775.00 C338.64,775.00 348.88,768.55 360.81,760.67 C398.71,735.62 429.10,715.62 442.25,707.08 L 455.00 698.80 L 464.75 705.09 C483.17,716.98 496.57,725.76 529.69,747.61 C547.94,759.65 568.41,773.09 575.19,777.47 C581.96,781.85 599.88,793.60 615.00,803.57 C640.60,820.46 671.26,840.45 692.50,854.11 C697.45,857.30 701.80,859.92 702.16,859.95 C702.52,859.98 702.39,858.54 701.86,856.75 ZM 260.77 813.25 L 261.04 792.00 L 240.02 792.00 L 219.00 792.00 L 219.00 813.52 L 219.00 835.04 L 239.75 834.77 L 260.50 834.50 L 260.77 813.25 ZM 72.78 389.22 L 73.06 374.95 L 58.28 375.22 L 43.50 375.50 L 43.85 388.50 C44.13,399.06 44.50,401.74 45.83,402.78 C47.00,403.70 50.97,403.98 59.98,403.78 L 72.50 403.50 L 72.78 389.22 ZM 242.00 293.98 L 242.00 271.96 L 219.25 272.23 L 196.50 272.50 L 196.23 294.25 L 195.96 316.00 L 218.98 316.00 L 242.00 316.00 L 242.00 293.98 ZM 323.77 268.75 L 324.03 244.00 L 299.02 244.00 L 274.00 244.00 L 274.00 268.33 C274.00,281.72 274.31,292.97 274.68,293.35 C275.06,293.73 286.20,293.91 299.43,293.77 L 323.50 293.50 L 323.77 268.75 ZM 183.00 241.00 L 183.00 226.00 L 168.00 226.00 L 153.00 226.00 L 153.00 241.00 L 153.00 256.00 L 168.00 256.00 L 183.00 256.00 L 183.00 241.00 ZM 248.00 206.50 L 248.00 190.00 L 232.00 190.00 L 216.00 190.00 L 216.00 206.50 L 216.00 223.00 L 232.00 223.00 L 248.00 223.00 L 248.00 206.50 ZM 312.00 176.47 L 312.00 160.95 L 296.75 161.22 L 281.50 161.50 L 281.22 176.75 L 280.95 192.00 L 296.47 192.00 L 312.00 192.00 L 312.00 176.47 ZM 341.67 736.33 C341.30,735.97 341.00,728.09 341.00,718.83 L 341.00 702.00 L 358.50 702.00 L 376.00 702.00 L 376.00 719.50 L 376.00 737.00 L 359.17 737.00 C349.91,737.00 342.03,736.70 341.67,736.33 ZM 383.45 690.92 C383.08,690.32 383.11,682.67 383.50,673.92 L 384.23 658.00 L 401.11 658.00 L 418.00 658.00 L 418.00 675.00 L 418.00 692.00 L 401.06 692.00 C389.98,692.00 383.89,691.63 383.45,690.92 ZM 306.64 648.23 C306.38,647.81 306.02,640.27 305.83,631.48 L 305.50 615.50 L 322.25 615.23 L 339.00 614.95 L 339.00 631.37 C339.00,645.42 338.77,647.87 337.42,648.39 C335.10,649.28 307.20,649.13 306.64,648.23 ZM 421.00 614.93 C421.00,613.53 432.30,572.26 435.54,561.81 C437.58,555.25 443.78,532.69 451.03,505.49 C453.11,497.69 457.07,483.87 465.34,455.50 C468.39,445.05 472.47,430.65 474.40,423.50 C476.34,416.35 478.97,406.67 480.24,402.00 L 482.56 393.50 L 488.53 393.17 C491.81,393.00 497.79,393.15 501.81,393.52 L 509.12 394.18 L 508.37 397.34 C507.96,399.08 507.66,401.51 507.70,402.75 C507.75,403.99 507.44,405.00 507.01,405.00 C505.97,405.00 503.79,413.85 504.53,415.05 C504.85,415.57 504.59,416.00 503.94,416.00 C503.27,416.00 502.98,416.83 503.28,417.95 C503.56,419.03 503.50,420.04 503.14,420.20 C502.48,420.51 498.66,433.86 487.92,473.50 C485.68,481.75 483.45,489.40 482.96,490.50 C482.46,491.60 480.07,500.15 477.65,509.50 C475.22,518.85 471.42,532.58 469.20,540.00 C466.97,547.42 461.99,564.97 458.13,579.00 C454.26,593.03 450.24,606.97 449.20,610.00 L 447.31 615.50 L 434.16 615.78 C424.90,615.98 421.00,615.72 421.00,614.93 ZM 388.00 582.93 C386.08,581.80 382.02,578.31 379.00,575.18 C375.98,572.05 364.73,561.41 354.00,551.52 C326.81,526.47 316.05,515.94 314.41,512.80 C311.39,507.02 313.84,500.04 321.18,493.52 C328.97,486.59 372.27,445.69 380.71,437.27 C392.06,425.96 395.30,425.46 404.09,433.68 C409.41,438.66 411.73,443.97 410.57,448.57 C409.76,451.79 409.83,451.72 382.25,476.91 C370.56,487.58 361.00,496.68 361.00,497.12 C361.00,497.57 358.86,499.99 356.25,502.50 L 351.50 507.08 L 356.52 511.79 C359.28,514.38 372.56,526.82 386.02,539.43 C399.48,552.04 410.65,562.96 410.82,563.69 C411.57,566.72 408.53,572.22 402.69,578.41 C395.78,585.74 393.80,586.35 388.00,582.93 ZM 531.55 582.73 C526.06,579.62 518.67,569.90 518.67,565.79 C518.67,563.08 519.89,561.49 526.93,555.05 C531.48,550.90 542.47,540.51 551.35,531.97 C560.23,523.42 569.64,514.70 572.25,512.59 C574.86,510.49 577.00,508.22 577.00,507.57 C577.00,506.92 564.29,494.07 548.75,479.02 C533.21,463.97 519.95,450.72 519.29,449.58 C515.83,443.67 520.82,434.10 529.70,429.62 C536.11,426.38 536.96,426.85 555.34,444.02 C583.75,470.54 612.15,498.31 614.13,501.50 C615.15,503.15 615.99,506.28 616.00,508.46 C616.00,512.19 615.32,513.08 603.75,524.48 C582.76,545.16 546.06,579.37 541.79,582.25 C536.87,585.56 536.56,585.57 531.55,582.73 ZM 244.75 505.28 L 242.00 504.87 L 242.00 482.93 L 242.00 461.00 L 264.00 461.00 L 286.00 461.00 L 286.00 482.87 L 286.00 504.74 L 282.25 505.36 C278.21,506.03 249.27,505.97 244.75,505.28 ZM 195.00 438.50 L 195.00 417.00 L 218.00 417.00 L 241.00 417.00 L 241.00 438.50 L 241.00 460.00 L 218.00 460.00 L 195.00 460.00 L 195.00 438.50 ZM 287.00 438.50 L 287.00 417.00 L 309.50 417.00 L 332.00 417.00 L 332.00 438.50 L 332.00 460.00 L 309.50 460.00 L 287.00 460.00 L 287.00 438.50 ZM 332.75 416.46 C332.34,416.02 332.00,405.17 332.00,392.33 L 332.00 369.00 L 355.00 369.00 L 378.00 369.00 L 378.00 392.50 L 378.00 416.00 L 372.16 416.00 C368.95,416.00 358.94,416.28 349.91,416.63 C340.88,416.97 333.16,416.90 332.75,416.46 ZM 379.00 348.39 L 379.00 327.00 L 399.50 327.00 L 420.00 327.00 L 420.00 348.00 L 420.00 369.00 L 408.25 369.16 C401.79,369.25 392.56,369.42 387.75,369.55 L 379.00 369.78 L 379.00 348.39 ZM 419.67 275.34 C419.31,274.97 419.03,267.33 419.06,258.35 C419.10,243.40 419.26,241.93 420.99,241.01 C422.02,240.45 429.65,240.00 437.93,240.00 L 453.00 240.00 L 453.00 258.00 L 453.00 276.00 L 436.67 276.00 C427.68,276.00 420.04,275.70 419.67,275.34 Z" fill="rgb(249,249,245)"/>
</g>
</svg>