<svg xmlns="http://www.w3.org/2000/svg" width="500" height="500" viewBox="0 0 500 500">
<g>
<path d="M 268.00 418.88 C259.60,420.13 224.95,420.72 184.21,420.30 L 151.91 419.97 L 152.56 416.55 C153.83,409.76 148.98,402.00 143.45,402.00 C142.19,402.00 140.99,401.48 140.78,400.85 C140.34,399.51 132.70,397.04 128.94,397.02 C124.55,396.99 114.00,391.22 114.00,388.85 C114.00,388.38 114.71,388.00 115.57,388.00 C116.68,388.00 116.95,387.42 116.50,385.99 C116.04,384.55 116.73,383.12 118.93,380.92 C120.62,379.23 122.00,377.49 122.00,377.05 C122.00,376.61 122.71,375.66 123.57,374.94 C126.33,372.65 129.00,366.22 129.00,361.86 C129.00,355.45 125.94,350.35 114.91,338.40 C101.86,324.26 99.00,319.91 99.00,314.17 C99.00,311.45 99.79,308.46 101.04,306.44 C105.62,299.03 104.36,287.94 97.68,276.87 C95.36,273.01 94.56,270.76 95.14,269.71 C95.79,268.56 95.57,268.30 94.24,268.65 C93.04,268.96 90.49,267.00 86.24,262.52 L 80.00 255.93 L 80.00 248.56 C80.00,238.88 83.27,219.94 87.06,207.68 C94.85,182.52 106.59,162.42 125.07,142.63 C148.27,117.79 176.96,101.78 212.61,93.80 C222.29,91.63 224.34,91.57 309.00,91.04 L 313.21 91.01 C391.99,90.51 399.01,90.47 403.25,93.88 C403.74,94.27 404.19,94.71 404.71,95.20 C405.36,95.81 405.93,96.32 406.44,96.89 C410.15,101.10 410.11,108.61 409.73,184.19 L 409.70 190.06 C409.25,279.19 409.36,277.03 404.53,296.00 C399.58,315.47 387.43,340.76 376.00,355.41 C349.22,389.70 310.25,412.60 268.00,418.88 ZM 364.08 268.41 C367.71,271.47 370.06,271.61 375.58,269.10 C380.46,266.89 383.62,263.13 385.04,257.87 C385.64,255.63 387.14,253.30 388.59,252.35 C391.23,250.62 394.55,245.22 393.57,244.24 C393.26,243.92 391.42,245.43 389.48,247.58 L 385.96 251.50 L 384.25 249.00 C383.31,247.62 379.78,243.57 376.39,240.00 C369.86,233.10 368.45,230.34 369.43,226.43 C369.90,224.57 370.70,224.00 372.90,224.00 C377.07,224.00 378.68,226.36 377.20,230.29 C375.90,233.73 376.88,235.65 379.43,234.66 C381.72,233.79 381.42,227.81 378.93,224.63 C377.26,222.52 376.01,222.00 372.56,222.00 C364.54,222.00 360.84,227.65 363.17,236.36 C364.20,240.19 364.03,241.37 361.59,247.76 C358.85,254.93 352.86,262.00 349.52,262.00 C347.42,262.00 344.91,257.74 344.29,253.14 C343.84,249.79 344.07,249.11 345.83,248.55 C349.03,247.54 353.84,240.25 354.59,235.28 C355.57,228.72 353.99,226.00 349.22,226.00 C346.19,226.00 344.76,226.68 342.35,229.25 C338.94,232.90 337.60,236.01 336.03,244.00 C334.60,251.21 329.94,258.58 325.46,260.72 C322.07,262.34 321.87,262.32 319.83,260.27 C317.08,257.52 316.02,250.36 317.10,241.77 C318.40,231.40 321.93,226.04 325.51,229.01 C327.45,230.62 327.40,233.46 325.39,236.53 C323.64,239.19 324.11,242.00 326.31,242.00 C328.11,242.00 330.00,237.73 330.00,233.68 C330.00,228.60 327.60,226.00 322.91,226.00 C315.68,226.00 311.24,231.11 308.88,242.13 C307.85,246.94 304.41,252.00 302.17,252.00 C301.66,252.00 301.05,248.16 300.80,243.48 C300.32,234.27 298.27,229.79 294.25,229.19 C293.13,229.03 291.42,228.01 290.45,226.94 C288.12,224.37 285.83,224.49 283.16,227.33 C280.85,229.78 277.00,239.55 277.00,242.94 C277.00,246.40 272.88,256.10 270.08,259.23 C267.55,262.07 267.29,262.15 265.70,260.55 C264.04,258.89 263.33,252.54 263.86,244.00 C263.98,242.02 266.95,234.80 270.69,227.40 C275.87,217.15 277.41,213.07 277.78,208.65 C278.32,202.12 277.14,200.00 272.96,200.00 C268.73,200.00 263.79,206.42 260.62,216.01 C259.18,220.36 258.00,224.62 258.00,225.47 C258.00,227.19 256.44,227.52 255.50,226.00 C254.55,224.47 249.13,224.81 246.11,226.59 C242.27,228.86 239.09,233.93 237.37,240.52 C234.58,251.19 228.46,262.02 226.06,260.54 C225.61,260.26 225.01,258.81 224.72,257.31 C224.11,254.11 225.71,234.96 226.99,230.18 C228.01,226.36 227.51,224.41 225.28,223.55 C222.84,222.62 220.28,223.85 219.59,226.28 C219.02,228.31 218.88,228.35 217.93,226.75 C217.22,225.55 215.65,225.00 212.92,225.00 C205.40,225.00 201.04,230.08 197.94,242.48 C196.93,246.55 194.98,252.08 193.62,254.76 C188.19,265.47 185.20,264.03 184.31,250.28 L 183.72 241.24 L 188.91 232.24 C199.90,213.21 201.99,200.00 194.01,200.00 C187.86,200.00 182.18,209.52 178.93,225.27 C177.88,230.35 177.02,236.91 177.01,239.86 C176.99,249.51 169.25,261.98 163.27,262.00 C161.43,262.00 159.18,258.00 158.49,253.50 C157.92,249.79 158.10,249.37 160.97,247.78 C162.96,246.67 164.95,244.17 166.52,240.78 C170.74,231.73 169.32,225.67 162.99,225.67 C156.52,225.67 149.98,236.05 150.01,246.30 C150.03,254.76 156.97,264.00 163.31,264.00 C167.49,264.00 171.69,260.85 174.53,255.58 C176.88,251.20 177.57,251.11 178.36,255.06 C179.16,259.04 184.13,264.00 187.32,264.00 C190.03,264.00 195.31,258.75 196.56,254.82 C197.25,252.67 197.43,252.80 199.08,256.68 C203.02,265.93 209.50,266.13 214.19,257.14 C216.39,252.95 217.11,252.20 217.59,253.65 C219.42,259.28 220.37,260.79 223.15,262.43 C226.12,264.18 226.28,264.18 228.85,262.29 C230.31,261.21 232.40,258.69 233.50,256.67 C235.92,252.23 236.64,252.10 237.49,255.97 C238.28,259.57 243.26,264.00 246.51,264.00 C249.11,264.00 252.07,260.48 254.64,254.33 L 256.22 250.54 L 258.09 255.52 C261.43,264.38 266.89,266.47 272.11,260.88 C273.71,259.17 275.29,256.69 275.62,255.38 C276.46,252.05 277.73,252.41 279.43,256.48 C281.09,260.47 286.20,263.99 290.33,264.00 C292.25,264.00 294.11,262.96 296.12,260.75 C297.74,258.96 299.62,256.91 300.29,256.19 C300.95,255.47 303.16,253.81 305.19,252.51 L 308.87 250.15 L 309.52 253.09 C310.34,256.84 315.79,262.66 319.30,263.54 C320.79,263.91 323.09,263.94 324.42,263.61 C327.73,262.78 332.73,258.42 334.66,254.68 L 336.25 251.61 L 338.03 255.05 C340.70,260.24 344.31,263.10 348.94,263.72 C352.83,264.24 353.34,264.01 357.29,259.84 C359.77,257.22 362.49,252.85 363.90,249.20 C365.22,245.79 366.55,243.00 366.86,243.00 C368.03,243.00 376.00,251.47 376.00,252.71 C376.00,253.42 374.87,254.00 373.47,254.00 C369.72,254.00 364.48,256.47 362.63,259.12 C360.19,262.60 360.64,265.52 364.08,268.41 ZM 123.50 263.71 C125.70,264.95 128.85,265.97 130.50,265.98 C134.76,266.00 139.60,262.71 141.84,258.29 C144.07,253.88 146.08,245.20 145.51,242.42 C144.67,238.29 144.47,236.44 143.44,235.62 C142.61,234.96 141.25,234.97 138.59,234.99 C138.08,235.00 137.51,235.00 136.90,235.00 C131.69,235.00 129.95,235.33 130.26,236.25 C130.49,236.94 132.22,237.55 134.09,237.62 C137.99,237.76 139.70,237.74 140.44,238.57 C141.01,239.22 141.01,240.38 141.00,242.53 C141.00,242.78 141.00,243.04 141.00,243.32 C141.00,250.22 138.47,258.62 135.50,261.59 C133.43,263.66 132.77,263.81 130.04,262.86 C126.03,261.47 122.38,256.63 121.08,250.98 C119.51,244.16 119.77,226.31 121.54,219.52 C124.13,209.58 126.51,205.20 130.31,203.39 C134.93,201.18 138.89,202.51 141.40,207.11 C143.22,210.45 143.23,210.72 141.53,214.30 C140.12,217.28 140.01,218.31 141.00,219.50 C143.96,223.06 146.59,216.62 144.95,209.81 C141.99,197.45 127.06,196.40 118.54,207.95 C112.28,216.43 109.32,233.61 111.95,246.24 C113.44,253.44 118.29,260.78 123.50,263.71 ZM 249.95 258.85 C248.89,260.58 247.56,262.00 246.99,262.00 C242.08,262.00 243.96,238.81 249.56,230.27 C251.48,227.34 254.59,227.33 255.37,230.25 C257.02,236.41 254.04,252.11 249.95,258.85 ZM 210.42 259.08 C208.08,261.67 207.14,261.50 205.88,258.25 C203.76,252.79 206.48,236.49 210.56,230.27 C212.28,227.65 215.51,227.27 216.39,229.58 C218.51,235.09 214.58,254.49 210.42,259.08 ZM 298.58 248.44 C297.84,252.34 296.60,252.81 293.22,250.44 C289.96,248.16 288.00,243.72 288.00,238.62 C288.00,233.75 289.85,231.00 293.12,231.00 C296.59,231.00 299.88,241.52 298.58,248.44 ZM 268.92 226.15 C267.30,229.37 265.69,232.00 265.35,232.00 C263.57,232.00 267.48,213.25 270.72,206.25 C272.60,202.20 276.00,201.74 276.00,205.53 C276.00,208.92 272.56,218.95 268.92,226.15 ZM 190.77 223.25 C186.50,232.35 184.66,234.32 185.60,228.75 C189.00,208.80 193.19,198.76 195.97,203.94 C197.45,206.72 196.01,212.10 190.77,223.25 ZM 373.46 267.38 C367.61,269.62 361.54,265.60 363.95,261.09 C365.40,258.39 367.51,257.35 373.25,256.49 C377.91,255.79 378.00,255.83 378.00,258.44 C378.00,261.80 375.58,266.56 373.46,267.38 ZM 294.96 258.32 C293.80,259.80 291.98,261.00 290.91,261.00 C287.81,261.00 285.01,255.34 285.00,249.05 L 285.00 243.60 L 287.65 247.69 C289.11,249.94 291.83,252.65 293.69,253.71 L 297.07 255.65 ZM 347.70 243.75 C346.57,244.99 345.28,246.00 344.83,246.00 C342.68,246.00 345.78,231.77 348.51,229.08 C349.98,227.64 350.24,227.66 351.51,229.37 C353.73,232.36 351.94,239.09 347.70,243.75 ZM 161.79 243.72 C157.83,247.93 157.26,246.67 159.10,237.80 C160.35,231.79 162.40,228.00 164.41,228.00 C168.12,228.00 166.29,238.93 161.79,243.72 Z" fill="rgb(112,51,10)"/>
<path d="M 0.00 0.00 L 500.00 0.00 L 500.00 500.00 L 0.00 500.00 ZM 268.00 418.88 C310.25,412.60 349.22,389.70 376.00,355.41 C387.43,340.76 399.58,315.47 404.53,296.00 C409.36,277.03 409.25,279.19 409.70,190.06 L 409.73 184.19 L 409.73 184.19 C410.11,108.61 410.15,101.10 406.44,96.89 C405.93,96.32 405.36,95.81 404.71,95.20 C404.19,94.71 403.74,94.27 403.25,93.88 C399.01,90.47 391.99,90.51 313.21,91.01 L 309.00 91.04 C224.34,91.57 222.29,91.63 212.61,93.80 C176.96,101.78 148.27,117.79 125.07,142.63 C106.59,162.42 94.85,182.52 87.06,207.68 C83.27,219.94 80.00,238.88 80.00,248.56 L 80.00 255.93 L 86.24 262.52 C90.49,267.00 93.04,268.96 94.24,268.65 C95.57,268.30 95.79,268.56 95.14,269.71 C94.56,270.76 95.36,273.01 97.68,276.87 C104.36,287.94 105.62,299.03 101.04,306.44 C99.79,308.46 99.00,311.45 99.00,314.17 C99.00,319.91 101.86,324.26 114.91,338.40 C125.94,350.35 129.00,355.45 129.00,361.86 C129.00,366.22 126.33,372.65 123.57,374.94 C122.71,375.66 122.00,376.61 122.00,377.05 C122.00,377.49 120.62,379.23 118.93,380.92 C116.73,383.12 116.04,384.55 116.50,385.99 C116.95,387.42 116.68,388.00 115.57,388.00 C114.71,388.00 114.00,388.38 114.00,388.85 C114.00,391.22 124.55,396.99 128.94,397.02 C132.70,397.04 140.34,399.51 140.78,400.85 C140.99,401.48 142.19,402.00 143.45,402.00 C148.98,402.00 153.83,409.76 152.56,416.55 L 151.91 419.97 L 184.21 420.30 C224.95,420.72 259.60,420.13 268.00,418.88 ZM 85.02 392.75 C85.01,393.44 85.45,394.00 86.00,394.00 C86.55,394.00 87.00,393.58 87.00,393.07 C87.00,392.56 87.70,391.44 88.56,390.58 C89.42,389.72 89.81,388.50 89.42,387.87 C88.64,386.61 85.06,390.57 85.02,392.75 ZM 85.00 367.00 C85.00,367.55 86.80,368.00 89.00,368.00 C91.20,368.00 93.00,367.55 93.00,367.00 C93.00,366.45 91.20,366.00 89.00,366.00 C86.80,366.00 85.00,366.45 85.00,367.00 ZM 84.00 411.00 C84.00,411.55 85.80,412.00 88.00,412.00 C90.20,412.00 92.00,411.55 92.00,411.00 C92.00,410.45 90.20,410.00 88.00,410.00 C85.80,410.00 84.00,410.45 84.00,411.00 ZM 124.00 406.99 C124.00,407.42 125.69,407.64 127.75,407.50 C132.62,407.16 132.73,407.11 131.23,406.16 C129.73,405.21 124.00,405.87 124.00,406.99 ZM 99.50 300.00 C100.22,301.17 102.01,301.35 101.98,300.25 C101.95,298.47 100.24,296.81 99.57,297.89 C99.19,298.50 99.16,299.45 99.50,300.00 ZM 115.00 363.00 C115.00,363.55 115.93,364.00 117.06,364.00 C118.19,364.00 118.84,363.55 118.50,363.00 C118.16,362.45 117.23,362.00 116.44,362.00 C115.65,362.00 115.00,362.45 115.00,363.00 ZM 106.19 358.94 C105.94,359.69 106.31,360.06 107.06,359.81 C107.78,359.57 108.57,358.78 108.81,358.06 C109.06,357.31 108.69,356.94 107.94,357.19 C107.22,357.43 106.43,358.22 106.19,358.94 ZM 117.61 400.58 C117.23,401.56 117.46,402.01 118.19,401.77 C119.68,401.27 120.50,399.00 119.19,399.00 C118.65,399.00 117.94,399.71 117.61,400.58 ZM 87.00 318.44 C87.00,319.30 87.45,320.00 88.00,320.00 C88.55,320.00 89.00,319.58 89.00,319.06 C89.00,318.54 88.55,317.84 88.00,317.50 C87.45,317.16 87.00,317.58 87.00,318.44 ZM 100.50 391.00 C100.16,391.55 100.58,392.00 101.44,392.00 C102.30,392.00 103.00,391.55 103.00,391.00 C103.00,390.45 102.58,390.00 102.06,390.00 C101.54,390.00 100.84,390.45 100.50,391.00 ZM 85.58 352.13 C86.21,353.15 86.45,353.15 86.79,352.14 C87.27,350.69 86.29,349.37 85.40,350.27 C85.07,350.60 85.15,351.44 85.58,352.13 Z" fill="rgb(188,166,121)"/>
<path d="M 84.00 411.00 C84.00,410.45 85.80,410.00 88.00,410.00 C90.20,410.00 92.00,410.45 92.00,411.00 C92.00,411.55 90.20,412.00 88.00,412.00 C85.80,412.00 84.00,411.55 84.00,411.00 ZM 124.00 406.99 C124.00,405.87 129.73,405.21 131.23,406.16 C132.73,407.11 132.62,407.16 127.75,407.50 C125.69,407.64 124.00,407.42 124.00,406.99 ZM 117.61 400.58 C117.94,399.71 118.65,399.00 119.19,399.00 C120.50,399.00 119.68,401.27 118.19,401.77 C117.46,402.01 117.23,401.56 117.61,400.58 ZM 85.02 392.75 C85.06,390.57 88.64,386.61 89.42,387.87 C89.81,388.50 89.42,389.72 88.56,390.58 C87.70,391.44 87.00,392.56 87.00,393.07 C87.00,393.58 86.55,394.00 86.00,394.00 C85.45,394.00 85.01,393.44 85.02,392.75 ZM 100.50 391.00 C100.84,390.45 101.54,390.00 102.06,390.00 C102.58,390.00 103.00,390.45 103.00,391.00 C103.00,391.55 102.30,392.00 101.44,392.00 C100.58,392.00 100.16,391.55 100.50,391.00 ZM 85.00 367.00 C85.00,366.45 86.80,366.00 89.00,366.00 C91.20,366.00 93.00,366.45 93.00,367.00 C93.00,367.55 91.20,368.00 89.00,368.00 C86.80,368.00 85.00,367.55 85.00,367.00 ZM 115.00 363.00 C115.00,362.45 115.65,362.00 116.44,362.00 C117.23,362.00 118.16,362.45 118.50,363.00 C118.84,363.55 118.19,364.00 117.06,364.00 C115.93,364.00 115.00,363.55 115.00,363.00 ZM 106.19 358.94 C106.43,358.22 107.22,357.43 107.94,357.19 C108.69,356.94 109.06,357.31 108.81,358.06 C108.57,358.78 107.78,359.57 107.06,359.81 C106.31,360.06 105.94,359.69 106.19,358.94 ZM 85.58 352.13 C85.15,351.44 85.07,350.60 85.40,350.27 C86.29,349.37 87.27,350.69 86.79,352.14 C86.45,353.15 86.21,353.15 85.58,352.13 ZM 87.00 318.44 C87.00,317.58 87.45,317.16 88.00,317.50 C88.55,317.84 89.00,318.54 89.00,319.06 C89.00,319.58 88.55,320.00 88.00,320.00 C87.45,320.00 87.00,319.30 87.00,318.44 ZM 99.50 300.00 C99.16,299.45 99.19,298.50 99.57,297.89 C100.24,296.81 101.95,298.47 101.98,300.25 C102.01,301.35 100.22,301.17 99.50,300.00 ZM 364.08 268.41 C360.64,265.52 360.19,262.60 362.63,259.12 C364.48,256.47 369.72,254.00 373.47,254.00 C374.87,254.00 376.00,253.42 376.00,252.71 C376.00,251.47 368.03,243.00 366.86,243.00 C366.55,243.00 365.22,245.79 363.90,249.20 C362.49,252.85 359.77,257.22 357.29,259.84 C353.34,264.01 352.83,264.24 348.94,263.72 C344.31,263.10 340.70,260.24 338.03,255.05 L 336.25 251.61 L 334.66 254.68 C332.73,258.42 327.73,262.78 324.42,263.61 C323.09,263.94 320.79,263.91 319.30,263.54 C315.79,262.66 310.34,256.84 309.52,253.09 L 308.87 250.15 L 305.19 252.51 C303.16,253.81 300.95,255.47 300.29,256.19 C299.62,256.91 297.74,258.96 296.12,260.75 C294.11,262.96 292.25,264.00 290.33,264.00 C286.20,263.99 281.09,260.47 279.43,256.48 C277.73,252.41 276.46,252.05 275.62,255.38 C275.29,256.69 273.71,259.17 272.11,260.88 C266.89,266.47 261.43,264.38 258.09,255.52 L 256.22 250.54 L 254.64 254.33 C252.07,260.48 249.11,264.00 246.51,264.00 C243.26,264.00 238.28,259.57 237.49,255.97 C236.64,252.10 235.92,252.23 233.50,256.67 C232.40,258.69 230.31,261.21 228.85,262.29 C226.28,264.18 226.12,264.18 223.15,262.43 C220.37,260.79 219.42,259.28 217.59,253.65 C217.11,252.20 216.39,252.95 214.19,257.14 C209.50,266.13 203.02,265.93 199.08,256.68 C197.43,252.80 197.25,252.67 196.56,254.82 C195.31,258.75 190.03,264.00 187.32,264.00 C184.13,264.00 179.16,259.04 178.36,255.06 C177.57,251.11 176.88,251.20 174.53,255.58 C171.69,260.85 167.49,264.00 163.31,264.00 C156.97,264.00 150.03,254.76 150.01,246.30 C149.98,236.05 156.52,225.67 162.99,225.67 C169.32,225.67 170.74,231.73 166.52,240.78 C164.95,244.17 162.96,246.67 160.97,247.78 C158.10,249.37 157.92,249.79 158.49,253.50 C159.18,258.00 161.43,262.00 163.27,262.00 C169.25,261.98 176.99,249.51 177.01,239.86 C177.02,236.91 177.88,230.35 178.93,225.27 C182.18,209.52 187.86,200.00 194.01,200.00 C201.99,200.00 199.90,213.21 188.91,232.24 L 183.72 241.24 L 184.31 250.28 C185.20,264.03 188.19,265.47 193.62,254.76 C194.98,252.08 196.93,246.55 197.94,242.48 C201.04,230.08 205.40,225.00 212.92,225.00 C215.65,225.00 217.22,225.55 217.93,226.75 C218.88,228.35 219.02,228.31 219.59,226.28 C220.28,223.85 222.84,222.62 225.28,223.55 C227.51,224.41 228.01,226.36 226.99,230.18 C225.71,234.96 224.11,254.11 224.72,257.31 C225.01,258.81 225.61,260.26 226.06,260.54 C228.46,262.02 234.58,251.19 237.37,240.52 C239.09,233.93 242.27,228.86 246.11,226.59 C249.13,224.81 254.55,224.47 255.50,226.00 C256.44,227.52 258.00,227.19 258.00,225.47 C258.00,224.62 259.18,220.36 260.62,216.01 C263.79,206.42 268.73,200.00 272.96,200.00 C277.14,200.00 278.32,202.12 277.78,208.65 C277.41,213.07 275.87,217.15 270.69,227.40 C266.95,234.80 263.98,242.02 263.86,244.00 C263.33,252.54 264.04,258.89 265.70,260.55 C267.29,262.15 267.55,262.07 270.08,259.23 C272.88,256.10 277.00,246.40 277.00,242.94 C277.00,239.55 280.85,229.78 283.16,227.33 C285.83,224.49 288.12,224.37 290.45,226.94 C291.42,228.01 293.13,229.03 294.25,229.19 C298.27,229.79 300.32,234.27 300.80,243.48 C301.05,248.16 301.66,252.00 302.17,252.00 C304.41,252.00 307.85,246.94 308.88,242.13 C311.24,231.11 315.68,226.00 322.91,226.00 C327.60,226.00 330.00,228.60 330.00,233.68 C330.00,237.73 328.11,242.00 326.31,242.00 C324.11,242.00 323.64,239.19 325.39,236.53 C327.40,233.46 327.45,230.62 325.51,229.01 C321.93,226.04 318.40,231.40 317.10,241.77 C316.02,250.36 317.08,257.52 319.83,260.27 C321.87,262.32 322.07,262.34 325.46,260.72 C329.94,258.58 334.60,251.21 336.03,244.00 C337.60,236.01 338.94,232.90 342.35,229.25 C344.76,226.68 346.19,226.00 349.22,226.00 C353.99,226.00 355.57,228.72 354.59,235.28 C353.84,240.25 349.03,247.54 345.83,248.55 C344.07,249.11 343.84,249.79 344.29,253.14 C344.91,257.74 347.42,262.00 349.52,262.00 C352.86,262.00 358.85,254.93 361.59,247.76 C364.03,241.37 364.20,240.19 363.17,236.36 C360.84,227.65 364.54,222.00 372.56,222.00 C376.01,222.00 377.26,222.52 378.93,224.63 C381.42,227.81 381.72,233.79 379.43,234.66 C376.88,235.65 375.90,233.73 377.20,230.29 C378.68,226.36 377.07,224.00 372.90,224.00 C370.70,224.00 369.90,224.57 369.43,226.43 C368.45,230.34 369.86,233.10 376.39,240.00 C379.78,243.57 383.31,247.62 384.25,249.00 L 385.96 251.50 L 389.48 247.58 C391.42,245.43 393.26,243.92 393.57,244.24 C394.55,245.22 391.23,250.62 388.59,252.35 C387.14,253.30 385.64,255.63 385.04,257.87 C383.62,263.13 380.46,266.89 375.58,269.10 C370.06,271.61 367.71,271.47 364.08,268.41 ZM 373.46 267.38 C375.58,266.56 378.00,261.80 378.00,258.44 C378.00,255.83 377.91,255.79 373.25,256.49 C367.51,257.35 365.40,258.39 363.95,261.09 C361.54,265.60 367.61,269.62 373.46,267.38 ZM 249.95 258.85 C254.04,252.11 257.02,236.41 255.37,230.25 C254.59,227.33 251.48,227.34 249.56,230.27 C243.96,238.81 242.08,262.00 246.99,262.00 C247.56,262.00 248.89,260.58 249.95,258.85 ZM 210.42 259.08 C214.58,254.49 218.51,235.09 216.39,229.58 C215.51,227.27 212.28,227.65 210.56,230.27 C206.48,236.49 203.76,252.79 205.88,258.25 C207.14,261.50 208.08,261.67 210.42,259.08 ZM 294.96 258.32 L 297.07 255.65 L 293.69 253.71 C291.83,252.65 289.11,249.94 287.65,247.69 L 285.00 243.60 L 285.00 249.05 C285.01,255.34 287.81,261.00 290.91,261.00 C291.98,261.00 293.80,259.80 294.96,258.32 ZM 298.58 248.44 C299.88,241.52 296.59,231.00 293.12,231.00 C289.85,231.00 288.00,233.75 288.00,238.62 C288.00,243.72 289.96,248.16 293.22,250.44 C296.60,252.81 297.84,252.34 298.58,248.44 ZM 161.79 243.72 C166.29,238.93 168.12,228.00 164.41,228.00 C162.40,228.00 160.35,231.79 159.10,237.80 C157.26,246.67 157.83,247.93 161.79,243.72 ZM 347.70 243.75 C351.94,239.09 353.73,232.36 351.51,229.37 C350.24,227.66 349.98,227.64 348.51,229.08 C345.78,231.77 342.68,246.00 344.83,246.00 C345.28,246.00 346.57,244.99 347.70,243.75 ZM 190.77 223.25 C196.01,212.10 197.45,206.72 195.97,203.94 C193.19,198.76 189.00,208.80 185.60,228.75 C184.66,234.32 186.50,232.35 190.77,223.25 ZM 268.92 226.15 C272.56,218.95 276.00,208.92 276.00,205.53 C276.00,201.74 272.60,202.20 270.72,206.25 C267.48,213.25 263.57,232.00 265.35,232.00 C265.69,232.00 267.30,229.37 268.92,226.15 ZM 123.50 263.71 C118.29,260.78 113.44,253.44 111.95,246.24 C109.32,233.61 112.28,216.43 118.54,207.95 C127.06,196.40 141.99,197.45 144.95,209.81 C146.59,216.62 143.96,223.06 141.00,219.50 C140.01,218.31 140.12,217.28 141.53,214.30 C143.23,210.72 143.22,210.45 141.40,207.11 C138.89,202.51 134.93,201.18 130.31,203.39 C126.51,205.20 124.13,209.58 121.54,219.52 C119.77,226.31 119.51,244.16 121.08,250.98 C122.38,256.63 126.03,261.47 130.04,262.86 C132.77,263.81 133.43,263.66 135.50,261.59 C138.47,258.62 141.00,250.22 141.00,243.32 C141.00,237.58 141.37,237.88 134.09,237.62 C132.22,237.55 130.49,236.94 130.26,236.25 C129.95,235.33 131.69,235.00 136.90,235.00 C144.67,235.00 143.86,234.30 145.51,242.42 C146.08,245.20 144.07,253.88 141.84,258.29 C139.60,262.71 134.76,266.00 130.50,265.98 C128.85,265.97 125.70,264.95 123.50,263.71 Z" fill="rgb(224,175,130)"/>
</g>
</svg>